<svg width="32" height="32" viewBox="0 0 32 32" fill="none" xmlns="http://www.w3.org/2000/svg">
<g clip-path="url(#clip0_52_1417)">
<path d="M22.12 12H20V5.33333C20 4.6 19.4 4 18.6667 4H13.3333C12.6 4 12 4.6 12 5.33333V12H9.87999C8.69332 12 8.09332 13.44 8.93332 14.28L15.0533 20.4C15.5733 20.92 16.4133 20.92 16.9333 20.4L23.0533 14.28C23.8933 13.44 23.3067 12 22.12 12ZM6.66666 25.3333C6.66666 26.0667 7.26666 26.6667 7.99999 26.6667H24C24.7333 26.6667 25.3333 26.0667 25.3333 25.3333C25.3333 24.6 24.7333 24 24 24H7.99999C7.26666 24 6.66666 24.6 6.66666 25.3333Z" fill="#CA53BA"/>
</g>
<defs>
<clipPath id="clip0_52_1417">
<rect width="32" height="32" fill="white"/>
</clipPath>
</defs>
</svg>
