<svg width="33" height="32" viewBox="0 0 33 32" fill="none" xmlns="http://www.w3.org/2000/svg">
<g clip-path="url(#clip0_261_241)">
<path d="M13.9533 20.7867L15.8333 22.6667L22.5 16L15.8333 9.33333L13.9533 11.2133L17.3933 14.6667H4.5V17.3333H17.3933L13.9533 20.7867ZM25.8333 4H7.16667C5.68667 4 4.5 5.2 4.5 6.66667V12H7.16667V6.66667H25.8333V25.3333H7.16667V20H4.5V25.3333C4.5 26.8 5.68667 28 7.16667 28H25.8333C27.3 28 28.5 26.8 28.5 25.3333V6.66667C28.5 5.2 27.3 4 25.8333 4Z" fill="#CA53BA"/>
</g>
<defs>
<clipPath id="clip0_261_241">
<rect width="32" height="32" fill="white" transform="translate(0.5)"/>
</clipPath>
</defs>
</svg>
