<svg width="683" height="683" viewBox="0 0 683 683" fill="none" xmlns="http://www.w3.org/2000/svg">
<g clip-path="url(#clip0_275_457)">
<rect width="682.667" height="682.667" rx="341.333" fill="#30324A"/>
<g filter="url(#filter0_d_275_457)">
<path d="M465.054 187.541L442.449 204.082L434.178 757.646L562.094 746.068L535.077 681.007C532.504 671.451 532.982 645.831 555.477 619.807C577.973 593.782 588.008 515.967 590.213 480.313L575.878 327.035L513.574 204.082L465.054 187.541Z" fill="#CA53BA"/>
<path d="M105.568 180.373L101.157 238.266L91.2325 495.751L151.331 557.503L144.163 726.219L248.921 754.89V677.148C246.348 667.591 226.426 583.527 248.921 557.503C271.417 531.479 306.814 531.405 309.02 495.751L302.955 327.035L295.236 181.476L283.106 191.4H246.165H221.353H181.655C169.799 179.734 164.354 179.076 157.396 191.4H118.249C115.09 184.953 112.71 182.067 105.568 180.373Z" fill="#CA53BA"/>
<path d="M448.305 175.314C437.41 180.663 429.883 189.774 425.525 203.046C423.148 209.583 422.752 278.715 422.752 607.14C422.752 992.812 422.95 1003.51 426.516 1013.21C431.072 1024.9 445.334 1040.75 456.427 1046.29C494.459 1065.91 543.98 1054.22 560.619 1021.73C568.939 1005.29 568.939 1006.48 555.469 825.232L542.594 653.69L552.696 640.616C586.37 596.047 604 526.915 604 438.569C604 373.003 592.511 321.105 566.958 270.989C553.092 243.455 535.661 219.091 515.852 199.084C489.903 172.739 468.114 165.212 448.305 175.314ZM484.555 205.225C511.692 223.845 546.159 276.338 561.214 321.897C575.08 363.099 579.041 396.575 577.655 454.218C575.476 543.753 559.827 596.245 522.587 640.022L516.644 647.153L529.718 822.855C540.217 963.495 542.396 999.943 540.613 1005.49C537.642 1014.21 524.964 1024.9 513.673 1028.07C501.788 1031.44 480.197 1029.66 470.293 1024.51C459.992 1019.16 451.871 1010.64 449.494 1002.12C446.522 992.019 446.918 224.439 449.692 212.752C452.663 201.461 459.794 195.321 468.312 196.905C471.481 197.698 479.008 201.461 484.555 205.225Z" fill="#30324A"/>
<path d="M97.0998 184.03C92.5438 188.586 92.7419 185.02 83.828 349.629C78.0836 452.831 77.0931 482.94 78.6778 492.845C83.0357 519.586 98.4863 539.989 125.822 554.845L140.48 562.967L140.282 580.993C140.282 591.095 136.519 687.364 131.765 795.321C126.614 916.351 124.039 995.783 125.03 1002.91C128.991 1032.23 152.167 1056 183.861 1062.93C196.737 1065.91 200.896 1065.91 212.583 1063.92C247.248 1057.98 273.792 1030.84 276.565 998.754C276.961 992.614 273.396 892.185 268.443 775.71C263.491 659.236 259.53 563.759 259.926 563.561C260.124 563.363 266.463 559.797 274.188 555.638C298.156 542.366 313.409 525.133 320.144 503.541C321.728 498.193 322.917 486.506 322.917 475.413C322.719 442.927 308.853 193.34 306.872 188.586C302.712 178.682 286.469 178.88 283.894 188.982C283.3 191.557 286.271 258.708 290.629 338.14C296.374 440.748 298.156 485.119 296.77 492.052C293.402 510.474 282.904 521.765 254.181 537.81C245.069 542.96 236.552 548.903 235.363 550.884C234.175 553.459 236.354 625.562 242.692 775.314C252.795 1016.98 252.993 1006.68 241.108 1020.94C214.96 1052.83 159.299 1040.75 150.385 1001.33C149.592 997.962 153.158 896.542 158.11 776.107C163.26 655.473 166.628 554.647 165.835 552.27C164.845 549.299 158.704 544.545 147.81 538.8C138.301 533.452 126.614 524.935 119.483 518.002C100.269 498.985 100.863 509.286 109.381 347.846C113.541 271.385 117.304 204.829 117.899 199.679C118.889 191.557 118.493 189.774 113.937 185.218C107.994 179.276 102.25 178.88 97.0998 184.03Z" fill="#30324A"/>
<path d="M160.289 184.228C156.327 188.189 156.327 190.764 156.327 303.673C156.327 413.214 156.525 419.553 159.893 422.524C164.449 426.684 172.174 426.882 177.324 423.118C180.89 420.345 181.088 416.582 181.682 305.258L182.078 190.17L177.324 185.218C171.382 179.276 165.637 178.879 160.289 184.228Z" fill="#30324A"/>
<path d="M223.676 184.228C219.715 188.19 219.715 190.765 219.715 303.673C219.715 413.215 219.913 419.553 223.28 422.525C227.044 426.09 234.967 426.883 238.731 424.307C245.07 420.148 245.466 414.205 245.466 302.089V189.973L240.514 185.219C234.769 179.276 229.025 178.88 223.676 184.228Z" fill="#30324A"/>
</g>
</g>
<defs>
<filter id="filter0_d_275_457" x="64.9" y="171" width="552.2" height="925.405" filterUnits="userSpaceOnUse" color-interpolation-filters="sRGB">
<feFlood flood-opacity="0" result="BackgroundImageFix"/>
<feColorMatrix in="SourceAlpha" type="matrix" values="0 0 0 0 0 0 0 0 0 0 0 0 0 0 0 0 0 0 127 0" result="hardAlpha"/>
<feOffset dy="18"/>
<feGaussianBlur stdDeviation="6.55"/>
<feComposite in2="hardAlpha" operator="out"/>
<feColorMatrix type="matrix" values="0 0 0 0 0 0 0 0 0 0 0 0 0 0 0 0 0 0 0.25 0"/>
<feBlend mode="normal" in2="BackgroundImageFix" result="effect1_dropShadow_275_457"/>
<feBlend mode="normal" in="SourceGraphic" in2="effect1_dropShadow_275_457" result="shape"/>
</filter>
<clipPath id="clip0_275_457">
<rect width="682.667" height="682.667" rx="341.333" fill="white"/>
</clipPath>
</defs>
</svg>
