<svg width="692" height="723" viewBox="0 0 692 723" fill="none" xmlns="http://www.w3.org/2000/svg">
<g clip-path="url(#clip0_275_446)">
<rect x="10" y="42" width="672" height="672" rx="336" fill="#30324A"/>
<circle cx="345.5" cy="378.5" r="328.5" stroke="#30324A" stroke-width="28"/>
<g filter="url(#filter0_d_275_446)">
<path d="M271.033 224.686H231.233L202.697 593.22L210.957 657.77L257.516 717.066L287.554 750.842L295.063 781.616L273.286 1197.44H419.72V1180.17L392.686 781.616L404.701 750.842L443.75 717.066L476.041 657.77L490.309 614.237L461.022 224.686L443.75 214.929L424.226 233.693L415.214 530.922L392.686 548.936L379.92 536.927L367.905 224.686L342.373 214.929L323.599 224.686L316.841 530.922L295.063 548.936L277.04 536.927L271.033 224.686Z" fill="#CA53BA"/>
<path d="M235.124 210.466C226.142 214.458 218.557 224.44 215.364 236.219C213.767 242.009 211.571 263.171 210.374 283.535C205.583 361.395 193.807 573.215 192.809 597.97C191.612 627.917 194.606 657.663 200.194 670.44C206.382 684.415 228.936 711.966 255.283 737.919C287.817 769.662 288.815 771.858 286.021 805.997C285.023 820.172 279.035 907.016 273.047 999.251C267.059 1091.49 261.67 1171.54 260.872 1177.13L259.874 1187.51L247.499 1184.72C225.942 1179.53 188.019 1166.15 166.263 1155.77C122.351 1134.81 86.6234 1109.85 51.6939 1076.11C14.5688 1039.98 -12.5764 1002.64 -34.7317 956.926C-105.19 811.388 -87.2258 641.692 12.3732 512.124C26.5446 493.757 61.2746 458.421 80.2363 443.448C105.785 423.084 134.926 404.717 163.069 391.141L188.218 378.963V367.184C188.218 360.596 187.42 355.406 186.222 355.406C185.025 355.406 174.247 359.798 162.271 365.188C69.8572 406.514 -11.3788 485.372 -55.2902 576.01C-86.4274 640.295 -100 699.987 -100 772.657C-100 819.174 -97.006 843.33 -86.2278 885.455C-66.2681 962.916 -27.5462 1030.2 30.337 1088.29C89.817 1147.58 155.884 1185.12 238.118 1206.08C338.914 1231.83 446.497 1220.45 542.503 1173.94C585.417 1153.17 625.137 1124.43 661.463 1088.29C730.724 1019.02 773.038 934.766 788.407 836.143C793.198 804.999 793.198 740.315 788.407 709.171C767.649 576.01 694.197 464.011 580.427 392.339C562.264 380.76 531.126 364.988 512.165 357.602L501.586 353.409V365.987V378.364L526.735 390.143C613.56 431.27 685.814 503.141 727.33 589.985C806.171 754.689 771.242 948.741 640.107 1076.11C592.602 1122.23 539.31 1154.37 476.636 1174.94C445.3 1185.32 431.727 1187.91 431.727 1183.72C431.727 1182.12 429.531 1149.38 426.737 1111.05C422.346 1047.16 413.164 913.804 407.576 829.555C406.378 810.988 405.979 788.828 406.777 780.643L408.175 765.67L437.715 736.722C481.826 693.399 493.602 673.036 498.592 631.91C499.191 626.32 496.197 564.431 491.806 494.157C487.215 423.883 482.225 344.425 480.628 317.474C475.638 241.61 474.64 231.228 470.848 224.041C467.056 216.655 454.481 209.867 444.701 209.667C428.134 209.667 411.368 220.248 407.775 233.225C406.578 238.016 405.779 293.916 405.779 387.748C405.779 549.657 406.378 541.073 393.804 541.073C382.027 541.073 382.426 545.664 380.83 386.35C380.231 306.094 378.634 237.218 377.636 233.225C373.245 215.856 351.09 205.674 333.326 212.462C322.547 216.455 316.959 222.244 313.166 233.225C310.571 240.412 310.372 261.574 311.17 385.751C312.368 529.294 312.368 530.092 308.176 536.481C303.386 544.267 296.4 545.065 290.811 538.876C287.219 534.884 287.019 528.695 286.021 384.553L285.023 234.622L279.634 225.439C271.051 210.865 249.694 203.678 235.124 210.466ZM257.279 234.423C260.872 237.218 261.071 241.809 262.069 386.749C263.067 533.885 263.067 536.281 267.259 545.265C276.041 564.031 296.4 572.017 313.366 563.233C323.146 558.441 328.136 551.654 332.926 538.078C336.12 528.894 336.12 517.315 334.922 385.951C333.525 255.585 333.725 243.207 336.719 238.615C340.311 233.025 347.098 232.027 352.687 236.219C356.08 238.815 356.279 247.399 357.277 386.55L358.275 534.085L363.066 544.466C373.445 566.227 399.193 571.418 418.154 555.447C430.13 545.265 429.731 551.055 429.731 387.548C429.731 238.615 429.731 237.817 433.723 235.62C436.118 234.423 440.709 233.624 444.302 234.023L450.689 234.622L452.086 251.592C452.884 260.975 454.88 290.123 456.677 316.475C458.273 342.828 463.263 420.09 467.854 488.167C472.644 560.238 475.439 618.733 474.84 628.116C472.844 661.656 463.263 678.027 421.348 719.353C383.624 756.686 383.025 757.684 383.225 794.618C383.225 819.373 389.412 915.201 403.584 1112.05C406.578 1154.37 408.574 1189.51 407.975 1190.31C405.779 1192.9 371.648 1195.9 345.9 1195.9C323.346 1195.9 286.42 1192.9 284.424 1190.91C283.426 1189.91 309.973 792.222 311.17 790.226C312.967 787.431 308.176 766.269 303.586 756.885C300.791 751.096 291.61 740.315 278.436 727.738C253.287 703.781 228.138 674.034 221.95 661.257C214.565 645.685 214.765 612.744 222.948 474.193C226.94 407.113 230.533 347.42 231.132 341.431C231.531 335.441 232.928 311.085 234.325 287.527C236.92 239.014 238.716 231.628 247.698 231.628C250.692 231.628 255.083 232.825 257.279 234.423Z" fill="#CA53BA"/>
</g>
</g>
<defs>
<filter id="filter0_d_275_446" x="-102.1" y="207.889" width="920.2" height="1046.77" filterUnits="userSpaceOnUse" color-interpolation-filters="sRGB">
<feFlood flood-opacity="0" result="BackgroundImageFix"/>
<feColorMatrix in="SourceAlpha" type="matrix" values="0 0 0 0 0 0 0 0 0 0 0 0 0 0 0 0 0 0 127 0" result="hardAlpha"/>
<feOffset dx="12" dy="21"/>
<feGaussianBlur stdDeviation="7.05"/>
<feComposite in2="hardAlpha" operator="out"/>
<feColorMatrix type="matrix" values="0 0 0 0 0 0 0 0 0 0 0 0 0 0 0 0 0 0 0.25 0"/>
<feBlend mode="normal" in2="BackgroundImageFix" result="effect1_dropShadow_275_446"/>
<feBlend mode="normal" in="SourceGraphic" in2="effect1_dropShadow_275_446" result="shape"/>
</filter>
<clipPath id="clip0_275_446">
<rect width="692" height="723" fill="white"/>
</clipPath>
</defs>
</svg>
