<svg width="298" height="298" viewBox="0 0 298 298" fill="none" xmlns="http://www.w3.org/2000/svg">
<g clip-path="url(#clip0_92_429)">
<path d="M147.198 36.32H101.728V49.17H147.198V36.32Z" fill="#B8C9F1"/>
<path d="M179.808 81.87V129.77C164.758 129.23 138.138 131.32 117.858 149.55C102.388 163.46 80.728 164.72 69.118 164.23V81.87C69.118 74.74 74.918 68.94 82.048 68.94H166.878C174.008 68.94 179.808 74.74 179.808 81.87Z" fill="#B8C9F1"/>
<path d="M179.808 149.58V264.55C179.808 271.68 174.008 277.48 166.878 277.48H82.048C74.918 277.48 69.118 271.68 69.118 264.55V184.04C70.388 184.08 71.738 184.11 73.158 184.11C88.618 184.11 112.498 180.94 131.068 164.25C146.538 150.36 168.188 149.09 179.808 149.58Z" fill="#F5F5F5"/>
<path d="M240.828 7.92C250.248 17.34 250.618 32.14 241.728 43.92C233.698 54.57 221.218 64.47 212.688 71.57C207.648 75.77 202.338 80.03 199.578 81.87V264.55C199.578 282.58 184.908 297.25 166.878 297.25H82.048C64.018 297.25 49.348 282.58 49.348 264.55V81.87C49.348 63.87 63.968 49.22 81.968 49.18V26.44C81.968 20.98 86.388 16.56 91.848 16.56H157.078C162.538 16.56 166.958 20.98 166.958 26.44V49.18C172.418 49.19 177.568 50.55 182.088 52.94C186.738 30.32 197.438 14.28 203.788 7.92C208.738 2.97 215.318 0.25 222.308 0.25C229.308 0.25 235.888 2.97 240.828 7.92ZM225.948 32.02C226.438 31.38 230.588 25.63 226.858 21.9C225.638 20.68 224.028 20.02 222.308 20.02C220.598 20.02 218.978 20.68 217.768 21.9C214.268 25.4 205.948 37.29 201.888 54.96C210.308 48.42 219.928 40.01 225.948 32.02ZM179.808 264.55V149.58C168.188 149.09 146.538 150.36 131.068 164.25C112.498 180.94 88.618 184.11 73.158 184.11C71.738 184.11 70.388 184.08 69.118 184.04V264.55C69.118 271.68 74.918 277.48 82.048 277.48H166.878C174.008 277.48 179.808 271.68 179.808 264.55ZM179.808 129.77V81.87C179.808 74.74 174.008 68.94 166.878 68.94H82.048C74.918 68.94 69.118 74.74 69.118 81.87V164.23C80.728 164.72 102.388 163.46 117.858 149.55C138.138 131.32 164.758 129.23 179.808 129.77ZM147.198 49.17V36.32H101.728V49.17H147.198Z" fill="black"/>
</g>
<defs>
<clipPath id="clip0_92_429">
<rect width="297.5" height="297.5" fill="white"/>
</clipPath>
</defs>
</svg>
