<?xml version="1.0" encoding="iso-8859-1"?>
<!-- Uploaded to: SVG Repo, www.svgrepo.com, Generator: SVG Repo Mixer Tools -->
<!DOCTYPE svg PUBLIC "-//W3C//DTD SVG 1.1//EN" "http://www.w3.org/Graphics/SVG/1.1/DTD/svg11.dtd">
<svg version="1.1" id="Capa_1" xmlns="http://www.w3.org/2000/svg" xmlns:xlink="http://www.w3.org/1999/xlink" 
	 viewBox="0 0 297.5 297.5" xml:space="preserve">
<g id="XMLID_5_">
	<g>
		<rect x="101.728" y="36.32" style="fill:#B8C9F1;" width="45.47" height="12.85"/>
		<path style="fill:#B8C9F1;" d="M179.808,81.87v47.9c-15.05-0.54-41.67,1.55-61.95,19.78c-15.47,13.91-37.13,15.17-48.74,14.68
			V81.87c0-7.13,5.8-12.93,12.93-12.93h84.83C174.008,68.94,179.808,74.74,179.808,81.87z"/>
		<path style="fill:#3498DB;" d="M179.808,149.58v114.97c0,7.13-5.8,12.93-12.93,12.93h-84.83c-7.13,0-12.93-5.8-12.93-12.93v-80.51
			c1.27,0.04,2.62,0.07,4.04,0.07c15.46,0,39.34-3.17,57.91-19.86C146.538,150.36,168.188,149.09,179.808,149.58z"/>
		<path d="M240.828,7.92c9.42,9.42,9.79,24.22,0.9,36c-8.03,10.65-20.51,20.55-29.04,27.65c-5.04,4.2-10.35,8.46-13.11,10.3v182.68
			c0,18.03-14.67,32.7-32.7,32.7h-84.83c-18.03,0-32.7-14.67-32.7-32.7V81.87c0-18,14.62-32.65,32.62-32.69V26.44
			c0-5.46,4.42-9.88,9.88-9.88h65.23c5.46,0,9.88,4.42,9.88,9.88v22.74c5.46,0.01,10.61,1.37,15.13,3.76
			c4.65-22.62,15.35-38.66,21.7-45.02c4.95-4.95,11.53-7.67,18.52-7.67C229.308,0.25,235.888,2.97,240.828,7.92z M225.948,32.02
			c0.49-0.64,4.64-6.39,0.91-10.12c-1.22-1.22-2.83-1.88-4.55-1.88c-1.71,0-3.33,0.66-4.54,1.88c-3.5,3.5-11.82,15.39-15.88,33.06
			C210.308,48.42,219.928,40.01,225.948,32.02z M179.808,264.55V149.58c-11.62-0.49-33.27,0.78-48.74,14.67
			c-18.57,16.69-42.45,19.86-57.91,19.86c-1.42,0-2.77-0.03-4.04-0.07v80.51c0,7.13,5.8,12.93,12.93,12.93h84.83
			C174.008,277.48,179.808,271.68,179.808,264.55z M179.808,129.77v-47.9c0-7.13-5.8-12.93-12.93-12.93h-84.83
			c-7.13,0-12.93,5.8-12.93,12.93v82.36c11.61,0.49,33.27-0.77,48.74-14.68C138.138,131.32,164.758,129.23,179.808,129.77z
			 M147.198,49.17V36.32h-45.47v12.85H147.198z"/>
	</g>
	<g>
	</g>
</g>
</svg>